<svg width="24" height="16" viewBox="0 0 24 16" fill="none" xmlns="http://www.w3.org/2000/svg">
<path d="M12 11.8133V4.70985C12 3.94502 12.8237 3.46331 13.4903 3.83827L19.173 7.03481C19.818 7.39765 19.8591 8.31114 19.2493 8.73042L13.5665 12.6373C12.903 13.0935 12 12.6184 12 11.8133Z" fill="#474847"/>
<path d="M4 11.8133V4.70985C4 3.94502 4.82366 3.46331 5.49026 3.83827L11.173 7.03481C11.818 7.39765 11.8591 8.31114 11.2493 8.73042L5.56653 12.6373C4.90303 13.0935 4 12.6184 4 11.8133Z" fill="#474847"/>
<path d="M21.5723 3.5C21.5723 3.22386 21.3484 3 21.0723 3C20.7961 3 20.5723 3.22386 20.5723 3.5V12.5C20.5723 12.7761 20.7961 13 21.0723 13C21.3484 13 21.5723 12.7761 21.5723 12.5V3.5Z" fill="#474847"/>
</svg>
