<svg width="24" height="16" viewBox="0 0 24 16" fill="none" xmlns="http://www.w3.org/2000/svg">
<path d="M13.5723 11.8133V4.70985C13.5723 3.94502 12.7486 3.46331 12.082 3.83827L6.39928 7.03481C5.75423 7.39765 5.71314 8.31114 6.32301 8.73042L12.0057 12.6373C12.6692 13.0935 13.5723 12.6184 13.5723 11.8133Z" fill="#474847"/>
<path d="M21.5723 11.8133V4.70985C21.5723 3.94502 20.7486 3.46331 20.082 3.83827L14.3993 7.03481C13.7542 7.39765 13.7131 8.31114 14.323 8.73042L20.0057 12.6373C20.6692 13.0935 21.5723 12.6184 21.5723 11.8133Z" fill="#474847"/>
<path d="M4 3.5C4 3.22386 4.22386 3 4.5 3C4.77614 3 5 3.22386 5 3.5V12.5C5 12.7761 4.77614 13 4.5 13C4.22386 13 4 12.7761 4 12.5V3.5Z" fill="#474847"/>
</svg>
