<svg width="107" height="128" viewBox="0 0 107 128" fill="none" xmlns="http://www.w3.org/2000/svg">
<path d="M53.5 118C23.9528 118 7.33714e-06 94.0472 8.6287e-06 64.5C9.92025e-06 34.9528 23.9528 11 53.5 11C83.0472 11 107 34.9528 107 64.5C107 94.0472 83.0472 118 53.5 118Z" fill="#D9D9D9"/>
<path d="M87.2399 48.9898C91.6511 58.7515 91.3918 69.645 87.207 78.9231L77.8958 73.5617L74.2429 79.875L83.5616 85.2408C80.6293 89.3133 76.805 92.8461 72.1747 95.5193C67.5454 98.192 62.5752 99.7373 57.5832 100.241L57.5936 89.4863L50.3002 89.494L50.2883 100.239C40.1602 99.2249 30.5969 94.0018 24.3483 85.3003L33.6718 79.9174L30.0319 73.6127L20.7083 78.9957C16.2975 69.2335 16.555 58.3396 20.7407 49.0614L30.0529 54.4248L33.7063 48.1124L24.3875 42.7441C27.3195 38.6727 31.1435 35.1418 35.7727 32.4691C40.4025 29.7961 45.3735 28.25 50.3661 27.7467L50.3546 38.4992L57.6486 38.4924L57.6599 27.7461C67.7875 28.7605 77.3513 33.9845 83.5999 42.6852L74.2763 48.0681L77.9163 54.3728L87.2399 48.9898Z" fill="#171717"/>
<path d="M50.7529 104.761L57.3608 104.755L57.3502 113.573L50.7423 113.579L50.7529 104.761Z" fill="#171717"/>
<path d="M42.0759 103.66L48.5361 105.05L46.6628 113.667L40.2027 112.277L42.0759 103.66Z" fill="#171717"/>
<path d="M66.5185 103.66L60.0583 105.05L61.9316 113.667L68.3918 112.277L66.5185 103.66Z" fill="#171717"/>
<path d="M50.7529 24.3189L57.3608 24.3252L57.3502 15.5068L50.7423 15.5005L50.7529 24.3189Z" fill="#171717"/>
<path d="M42.0759 25.4198L48.5361 24.0301L46.6629 15.4128L40.2027 16.8026L42.0759 25.4198Z" fill="#171717"/>
<path d="M66.5185 25.4199L60.0584 24.0302L61.9316 15.4129L68.3918 16.8027L66.5185 25.4199Z" fill="#171717"/>
<path d="M94.5181 68.0837L94.5119 61.4758L103.33 61.4864L103.337 68.0943L94.5181 68.0837Z" fill="#171717"/>
<path d="M93.4173 76.7607L94.807 70.3005L103.424 72.1738L102.034 78.6339L93.4173 76.7607Z" fill="#171717"/>
<path d="M93.4172 52.3181L94.8069 58.7783L103.424 56.905L102.034 50.4448L93.4172 52.3181Z" fill="#171717"/>
<path d="M14.0763 68.0837L14.0826 61.4758L5.26412 61.4864L5.25783 68.0943L14.0763 68.0837Z" fill="#171717"/>
<path d="M15.1772 76.7607L13.7874 70.3005L5.17021 72.1738L6.55998 78.6339L15.1772 76.7607Z" fill="#171717"/>
<path d="M15.1773 52.3181L13.7875 58.7783L5.17031 56.905L6.56008 50.4448L15.1773 52.3181Z" fill="#171717"/>
</svg>
